# xmcd
#
# Track frame offsets: 
#        150
#        16762
#        17454
#        32910
#        33450
#        45814
#        47270
#        63062
#        66082
#        80446
#        98354
#        99414
#        112678
#
# Disc length: 1508 seconds
#
# Revision: 0
# Processed by: cddbd v1.5.2PL0 Copyright (c) Steve Scherf et al.
# Submitted via: ExactAudioCopy v0.99pb5
#
DISCID=7d05e20d
DTITLE=Highlands Country - May 22, 2011 11:15
DYEAR=2011
DGENRE=Country
TTITLE0=Can't Take Him Out Of Me
TTITLE1=Talking
TTITLE2=Get Up In Jesus Name
TTITLE3=Talking
TTITLE4=The Unclouded Day
TTITLE5=Talking
TTITLE6=The Man I Want To Be
TTITLE7=You Asked For It Promo
TTITLE8=Bill Announcements
TTITLE9=The Rock
TTITLE10=Talking
TTITLE11=I Stand Amazed
TTITLE12=Talking
EXTD=
EXTT0=
EXTT1=
EXTT2=
EXTT3=
EXTT4=
EXTT5=
EXTT6=
EXTT7=
EXTT8=
EXTT9=
EXTT10=
EXTT11=
EXTT12=
PLAYORDER=
